<svg height="20" viewBox="0 0 20 20" width="20" xmlns="http://www.w3.org/2000/svg"><path d="m17.5 4c.2761 0 .5.22386.5.5v11c0 .2761-.2239.5-.5.5h-15c-.27614 0-.5-.2239-.5-.5v-11c0-.27614.22386-.5.5-.5zm-12.5 6h-2v5h14v-5h-2v3.5c0 .2761-.2239.5-.5.5s-.5-.2239-.5-.5v-3.5h-2v3.5c0 .2761-.2239.5-.5.5s-.5-.2239-.5-.5v-3.5h-2v3.5c0 .2761-.22386.5-.5.5s-.5-.2239-.5-.5v-3.5h-2v3.5c0 .2761-.22386.5-.5.5s-.5-.2239-.5-.5zm12-5h-14v4h14zm-8.75 1.00146c.41421 0 .75.33579.75.75 0 .41422-.33579.75-.75.75s-.75-.33578-.75-.75c0-.41421.33579-.75.75-.75zm-2.5-.00146c.41421 0 .75.33579.75.75s-.33579.75-.75.75-.75-.33579-.75-.75.33579-.75.75-.75zm8.75 0c.2761 0 .5.22386.5.5 0 .24545778-.1769086.4496079-.4101355.49194425l-.0898645.00805575h-2c-.2761 0-.5-.22386-.5-.5 0-.24545778.1769086-.4496079.4101355-.49194425l.0898645-.00805575z" fill="#212121"/></svg>